<mxfile host="app.diagrams.net" modified="2024-06-10T17:34:09.975Z" agent="Mozilla/5.0 (Windows NT 10.0; Win64; x64) AppleWebKit/537.36 (KHTML, like Gecko) Chrome/125.0.0.0 Safari/537.36" etag="ht35ODxAk-6CyGQfmbhu" version="24.5.2" type="github">
  <diagram name="Stránka-1" id="PVMh3fb2kLKUdeauMjn0">
    <mxGraphModel dx="521" dy="557" grid="1" gridSize="10" guides="1" tooltips="1" connect="1" arrows="1" fold="1" page="1" pageScale="1" pageWidth="827" pageHeight="1169" math="0" shadow="0">
      <root>
        <mxCell id="0" />
        <mxCell id="1" parent="0" />
        <mxCell id="Y6qf1inivHKss2DE0N5O-8" style="edgeStyle=orthogonalEdgeStyle;rounded=0;orthogonalLoop=1;jettySize=auto;html=1;entryX=0;entryY=0.5;entryDx=0;entryDy=0;" edge="1" parent="1" source="Y6qf1inivHKss2DE0N5O-1" target="Y6qf1inivHKss2DE0N5O-7">
          <mxGeometry relative="1" as="geometry" />
        </mxCell>
        <mxCell id="Y6qf1inivHKss2DE0N5O-1" value="Studijní materiály od učitelů" style="shape=parallelogram;html=1;strokeWidth=2;perimeter=parallelogramPerimeter;whiteSpace=wrap;rounded=1;arcSize=12;size=0.23;" vertex="1" parent="1">
          <mxGeometry x="10" y="90" width="100" height="60" as="geometry" />
        </mxCell>
        <mxCell id="Y6qf1inivHKss2DE0N5O-28" style="edgeStyle=orthogonalEdgeStyle;rounded=0;orthogonalLoop=1;jettySize=auto;html=1;entryX=0.5;entryY=1;entryDx=0;entryDy=0;" edge="1" parent="1" source="Y6qf1inivHKss2DE0N5O-2" target="Y6qf1inivHKss2DE0N5O-7">
          <mxGeometry relative="1" as="geometry" />
        </mxCell>
        <mxCell id="Y6qf1inivHKss2DE0N5O-2" value="Publikace od nakladatelství" style="shape=parallelogram;html=1;strokeWidth=2;perimeter=parallelogramPerimeter;whiteSpace=wrap;rounded=1;arcSize=12;size=0.23;" vertex="1" parent="1">
          <mxGeometry x="10" y="160" width="100" height="60" as="geometry" />
        </mxCell>
        <mxCell id="Y6qf1inivHKss2DE0N5O-12" style="edgeStyle=orthogonalEdgeStyle;rounded=0;orthogonalLoop=1;jettySize=auto;html=1;" edge="1" parent="1" source="Y6qf1inivHKss2DE0N5O-3" target="Y6qf1inivHKss2DE0N5O-11">
          <mxGeometry relative="1" as="geometry" />
        </mxCell>
        <mxCell id="Y6qf1inivHKss2DE0N5O-3" value="On-premise databáze VŠE" style="shape=dataStorage;whiteSpace=wrap;html=1;fixedSize=1;" vertex="1" parent="1">
          <mxGeometry x="320" y="80" width="100" height="80" as="geometry" />
        </mxCell>
        <mxCell id="Y6qf1inivHKss2DE0N5O-10" style="edgeStyle=orthogonalEdgeStyle;rounded=0;orthogonalLoop=1;jettySize=auto;html=1;" edge="1" parent="1" source="Y6qf1inivHKss2DE0N5O-7" target="Y6qf1inivHKss2DE0N5O-3">
          <mxGeometry relative="1" as="geometry" />
        </mxCell>
        <mxCell id="Y6qf1inivHKss2DE0N5O-7" value="uložení a přejmenování" style="html=1;dashed=0;whiteSpace=wrap;" vertex="1" parent="1">
          <mxGeometry x="170" y="95" width="100" height="50" as="geometry" />
        </mxCell>
        <mxCell id="Y6qf1inivHKss2DE0N5O-37" style="edgeStyle=orthogonalEdgeStyle;rounded=0;orthogonalLoop=1;jettySize=auto;html=1;entryX=0;entryY=0.5;entryDx=0;entryDy=0;" edge="1" parent="1" source="Y6qf1inivHKss2DE0N5O-11" target="Y6qf1inivHKss2DE0N5O-34">
          <mxGeometry relative="1" as="geometry" />
        </mxCell>
        <mxCell id="Y6qf1inivHKss2DE0N5O-11" value="extrakce metadat, zpracování a chunking&lt;div&gt;pomocí Unstructured a vlastních funkcí&lt;/div&gt;" style="html=1;dashed=0;whiteSpace=wrap;" vertex="1" parent="1">
          <mxGeometry x="470" y="77.5" width="100" height="85" as="geometry" />
        </mxCell>
        <mxCell id="Y6qf1inivHKss2DE0N5O-45" style="edgeStyle=orthogonalEdgeStyle;rounded=0;orthogonalLoop=1;jettySize=auto;html=1;" edge="1" parent="1" source="Y6qf1inivHKss2DE0N5O-13" target="Y6qf1inivHKss2DE0N5O-33">
          <mxGeometry relative="1" as="geometry" />
        </mxCell>
        <mxCell id="Y6qf1inivHKss2DE0N5O-13" value="Chroma vektorová databáze" style="shape=dataStorage;whiteSpace=wrap;html=1;fixedSize=1;" vertex="1" parent="1">
          <mxGeometry x="420" y="340" width="100" height="80" as="geometry" />
        </mxCell>
        <mxCell id="Y6qf1inivHKss2DE0N5O-40" style="edgeStyle=orthogonalEdgeStyle;rounded=0;orthogonalLoop=1;jettySize=auto;html=1;" edge="1" parent="1" source="Y6qf1inivHKss2DE0N5O-14" target="Y6qf1inivHKss2DE0N5O-35">
          <mxGeometry relative="1" as="geometry" />
        </mxCell>
        <mxCell id="Y6qf1inivHKss2DE0N5O-14" value="vektorizace pomocí OpenAI Embeddings" style="html=1;dashed=0;whiteSpace=wrap;" vertex="1" parent="1">
          <mxGeometry x="600" y="180" width="100" height="50" as="geometry" />
        </mxCell>
        <mxCell id="Y6qf1inivHKss2DE0N5O-21" style="edgeStyle=orthogonalEdgeStyle;rounded=0;orthogonalLoop=1;jettySize=auto;html=1;" edge="1" parent="1" source="Y6qf1inivHKss2DE0N5O-17" target="Y6qf1inivHKss2DE0N5O-19">
          <mxGeometry relative="1" as="geometry" />
        </mxCell>
        <mxCell id="Y6qf1inivHKss2DE0N5O-17" value="Uživatelský dotaz" style="shape=parallelogram;html=1;strokeWidth=2;perimeter=parallelogramPerimeter;whiteSpace=wrap;rounded=1;arcSize=12;size=0.23;" vertex="1" parent="1">
          <mxGeometry x="10" y="250" width="100" height="60" as="geometry" />
        </mxCell>
        <mxCell id="Y6qf1inivHKss2DE0N5O-22" style="edgeStyle=orthogonalEdgeStyle;rounded=0;orthogonalLoop=1;jettySize=auto;html=1;" edge="1" parent="1" source="Y6qf1inivHKss2DE0N5O-18" target="Y6qf1inivHKss2DE0N5O-20">
          <mxGeometry relative="1" as="geometry" />
        </mxCell>
        <mxCell id="Y6qf1inivHKss2DE0N5O-18" value="Uživatelské filtry" style="shape=parallelogram;html=1;strokeWidth=2;perimeter=parallelogramPerimeter;whiteSpace=wrap;rounded=1;arcSize=12;size=0.23;" vertex="1" parent="1">
          <mxGeometry x="10" y="320" width="100" height="60" as="geometry" />
        </mxCell>
        <mxCell id="Y6qf1inivHKss2DE0N5O-44" style="edgeStyle=orthogonalEdgeStyle;rounded=0;orthogonalLoop=1;jettySize=auto;html=1;entryX=0;entryY=0.5;entryDx=0;entryDy=0;" edge="1" parent="1" source="Y6qf1inivHKss2DE0N5O-19" target="Y6qf1inivHKss2DE0N5O-43">
          <mxGeometry relative="1" as="geometry" />
        </mxCell>
        <mxCell id="Y6qf1inivHKss2DE0N5O-19" value="tokenizace a vektorizace" style="html=1;dashed=0;whiteSpace=wrap;" vertex="1" parent="1">
          <mxGeometry x="170" y="255" width="100" height="50" as="geometry" />
        </mxCell>
        <mxCell id="Y6qf1inivHKss2DE0N5O-26" style="edgeStyle=orthogonalEdgeStyle;rounded=0;orthogonalLoop=1;jettySize=auto;html=1;entryX=0;entryY=0.5;entryDx=0;entryDy=0;" edge="1" parent="1" source="Y6qf1inivHKss2DE0N5O-20" target="Y6qf1inivHKss2DE0N5O-13">
          <mxGeometry relative="1" as="geometry" />
        </mxCell>
        <mxCell id="Y6qf1inivHKss2DE0N5O-20" value="filtrace v Chroma databázi pomocí metadat" style="html=1;dashed=0;whiteSpace=wrap;" vertex="1" parent="1">
          <mxGeometry x="170" y="325" width="100" height="50" as="geometry" />
        </mxCell>
        <mxCell id="Y6qf1inivHKss2DE0N5O-47" style="edgeStyle=orthogonalEdgeStyle;rounded=0;orthogonalLoop=1;jettySize=auto;html=1;" edge="1" parent="1" source="Y6qf1inivHKss2DE0N5O-24" target="Y6qf1inivHKss2DE0N5O-13">
          <mxGeometry relative="1" as="geometry" />
        </mxCell>
        <mxCell id="Y6qf1inivHKss2DE0N5O-24" value="sémantické vyhledávání" style="html=1;dashed=0;whiteSpace=wrap;" vertex="1" parent="1">
          <mxGeometry x="420" y="255" width="100" height="50" as="geometry" />
        </mxCell>
        <mxCell id="Y6qf1inivHKss2DE0N5O-30" value="Odpověď modelu" style="shape=parallelogram;html=1;strokeWidth=2;perimeter=parallelogramPerimeter;whiteSpace=wrap;rounded=1;arcSize=12;size=0.23;" vertex="1" parent="1">
          <mxGeometry x="10" y="410" width="100" height="60" as="geometry" />
        </mxCell>
        <mxCell id="Y6qf1inivHKss2DE0N5O-31" value="Náhled dokumentu" style="shape=parallelogram;html=1;strokeWidth=2;perimeter=parallelogramPerimeter;whiteSpace=wrap;rounded=1;arcSize=12;size=0.23;" vertex="1" parent="1">
          <mxGeometry x="10" y="480" width="100" height="60" as="geometry" />
        </mxCell>
        <mxCell id="Y6qf1inivHKss2DE0N5O-33" value="kontext pro model" style="shape=parallelogram;html=1;strokeWidth=2;perimeter=parallelogramPerimeter;whiteSpace=wrap;rounded=1;arcSize=12;size=0.23;" vertex="1" parent="1">
          <mxGeometry x="420" y="480" width="100" height="60" as="geometry" />
        </mxCell>
        <mxCell id="Y6qf1inivHKss2DE0N5O-38" style="edgeStyle=orthogonalEdgeStyle;rounded=0;orthogonalLoop=1;jettySize=auto;html=1;" edge="1" parent="1" source="Y6qf1inivHKss2DE0N5O-34" target="Y6qf1inivHKss2DE0N5O-14">
          <mxGeometry relative="1" as="geometry" />
        </mxCell>
        <mxCell id="Y6qf1inivHKss2DE0N5O-34" value="chunky s metadaty" style="shape=parallelogram;html=1;strokeWidth=2;perimeter=parallelogramPerimeter;whiteSpace=wrap;rounded=1;arcSize=12;size=0.23;" vertex="1" parent="1">
          <mxGeometry x="600" y="90" width="100" height="60" as="geometry" />
        </mxCell>
        <mxCell id="Y6qf1inivHKss2DE0N5O-42" style="edgeStyle=orthogonalEdgeStyle;rounded=0;orthogonalLoop=1;jettySize=auto;html=1;entryX=1;entryY=0.5;entryDx=0;entryDy=0;" edge="1" parent="1" source="Y6qf1inivHKss2DE0N5O-35" target="Y6qf1inivHKss2DE0N5O-13">
          <mxGeometry relative="1" as="geometry" />
        </mxCell>
        <mxCell id="Y6qf1inivHKss2DE0N5O-35" value="embeddingové vektory" style="shape=parallelogram;html=1;strokeWidth=2;perimeter=parallelogramPerimeter;whiteSpace=wrap;rounded=1;arcSize=12;size=0.23;" vertex="1" parent="1">
          <mxGeometry x="600" y="260" width="100" height="60" as="geometry" />
        </mxCell>
        <mxCell id="Y6qf1inivHKss2DE0N5O-46" style="edgeStyle=orthogonalEdgeStyle;rounded=0;orthogonalLoop=1;jettySize=auto;html=1;" edge="1" parent="1" source="Y6qf1inivHKss2DE0N5O-43" target="Y6qf1inivHKss2DE0N5O-24">
          <mxGeometry relative="1" as="geometry" />
        </mxCell>
        <mxCell id="Y6qf1inivHKss2DE0N5O-43" value="embeddingové vektory" style="shape=parallelogram;html=1;strokeWidth=2;perimeter=parallelogramPerimeter;whiteSpace=wrap;rounded=1;arcSize=12;size=0.23;" vertex="1" parent="1">
          <mxGeometry x="300" y="250" width="100" height="60" as="geometry" />
        </mxCell>
      </root>
    </mxGraphModel>
  </diagram>
</mxfile>
